<?xml version="1.0" encoding="UTF-8" standalone="no"?>
<!DOCTYPE svg PUBLIC "-//W3C//DTD SVG 1.1//EN" "http://www.w3.org/Graphics/SVG/1.1/DTD/svg11.dtd">
<!-- Created with Vectornator (http://vectornator.io/) -->
<svg height="100%" stroke-miterlimit="10" style="fill-rule:nonzero;clip-rule:evenodd;stroke-linecap:round;stroke-linejoin:round;" version="1.1" viewBox="0 0 1920 1080" width="100%" xml:space="preserve" xmlns="http://www.w3.org/2000/svg" xmlns:xlink="http://www.w3.org/1999/xlink">
<defs/>
<clipPath id="ArtboardFrame">
<rect height="1080" width="1920" x="0" y="0"/>
</clipPath>
<g clip-path="url(#ArtboardFrame)" id="STARONLY">
<g opacity="1">
<g opacity="1">
<path d="M90.9621 0.0165306L166.531 0.0165306L65.7726 176.343L-9.79592 176.343" fill="#15439f" fill-rule="nonzero" opacity="1" stroke="none"/>
<path d="M-9.79592 0L67.3469 0L-9.79592 132.245" fill="#15439f" fill-rule="nonzero" opacity="1" stroke="none"/>
<path d="M1193 0.0165306L1268.57 0.0165306L1167.81 176.343L1092.24 176.343" fill="#15439f" fill-rule="nonzero" opacity="1" stroke="none"/>
<path d="M641.983 0.0165306L717.551 0.0165306L616.793 176.343L541.224 176.343" fill="#15439f" fill-rule="nonzero" opacity="1" stroke="none"/>
<path d="M311.37 0.0165306L386.939 0.0165306L286.181 176.343L210.612 176.343" fill="#15439f" fill-rule="nonzero" opacity="1" stroke="none"/>
<path d="M862.391 0.0165306L937.959 0.0165306L837.201 176.343L761.633 176.343" fill="#15439f" fill-rule="nonzero" opacity="1" stroke="none"/>
<path d="M1413.41 0.0165306L1488.98 0.0165306L1388.22 176.343L1312.65 176.343" fill="#15439f" fill-rule="nonzero" opacity="1" stroke="none"/>
<path d="M421.574 0.0165306L497.143 0.0165306L396.385 176.343L320.816 176.343" fill="#15439f" fill-rule="nonzero" opacity="1" stroke="none"/>
<path d="M1633.82 0.0165306L1709.39 0.0165306L1608.63 176.343L1533.06 176.343" fill="#15439f" fill-rule="nonzero" opacity="1" stroke="none"/>
<path d="M1523.62 0.0165306L1599.18 0.0165306L1498.43 176.343L1422.86 176.343" fill="#15439f" fill-rule="nonzero" opacity="1" stroke="none"/>
<path d="M972.595 0.0165306L1048.16 0.0165306L947.405 176.343L871.837 176.343" fill="#15439f" fill-rule="nonzero" opacity="1" stroke="none"/>
<path d="M531.778 0.0165306L607.347 0.0165306L506.589 176.343L431.02 176.343" fill="#15439f" fill-rule="nonzero" opacity="1" stroke="none"/>
<path d="M1854.23 0.0165306L1929.8 0.0165306L1829.04 176.343L1753.47 176.343" fill="#15439f" fill-rule="nonzero" opacity="1" stroke="none"/>
<path d="M1744.02 0.0165306L1819.59 0.0165306L1718.83 176.343L1643.27 176.343" fill="#15439f" fill-rule="nonzero" opacity="1" stroke="none"/>
<path d="M1082.8 0.0165306L1158.37 0.0165306L1057.61 176.343L982.041 176.343" fill="#15439f" fill-rule="nonzero" opacity="1" stroke="none"/>
<path d="M201.166 0.0165306L276.735 0.0165306L175.977 176.343L100.408 176.343" fill="#15439f" fill-rule="nonzero" opacity="1" stroke="none"/>
<path d="M1303.21 0.0165306L1378.78 0.0165306L1278.02 176.343L1202.45 176.343" fill="#15439f" fill-rule="nonzero" opacity="1" stroke="none"/>
<path d="M752.187 0.0165306L827.755 0.0165306L726.997 176.343L651.429 176.343" fill="#15439f" fill-rule="nonzero" opacity="1" stroke="none"/>
<path d="M752.187 0.0165306L827.755 0.0165306L726.997 176.343L651.429 176.343" fill="#15439f" fill-rule="nonzero" opacity="1" stroke="none"/>
<path d="M1929.8 176.343L1852.65 176.343L1929.8 44.0982" fill="#15439f" fill-rule="nonzero" opacity="1" stroke="none"/>
</g>
<g opacity="1">
<path d="M90.9621 903.673L166.531 903.673L65.7726 1080L-9.79592 1080" fill="#15439f" fill-rule="nonzero" opacity="1" stroke="none"/>
<path d="M-9.79592 903.657L67.3469 903.657L-9.79592 1035.9" fill="#15439f" fill-rule="nonzero" opacity="1" stroke="none"/>
<path d="M1193 903.673L1268.57 903.673L1167.81 1080L1092.24 1080" fill="#15439f" fill-rule="nonzero" opacity="1" stroke="none"/>
<path d="M641.983 903.673L717.551 903.673L616.793 1080L541.224 1080" fill="#15439f" fill-rule="nonzero" opacity="1" stroke="none"/>
<path d="M311.37 903.673L386.939 903.673L286.181 1080L210.612 1080" fill="#15439f" fill-rule="nonzero" opacity="1" stroke="none"/>
<path d="M862.391 903.673L937.959 903.673L837.201 1080L761.633 1080" fill="#15439f" fill-rule="nonzero" opacity="1" stroke="none"/>
<path d="M1413.41 903.673L1488.98 903.673L1388.22 1080L1312.65 1080" fill="#15439f" fill-rule="nonzero" opacity="1" stroke="none"/>
<path d="M421.574 903.673L497.143 903.673L396.385 1080L320.816 1080" fill="#15439f" fill-rule="nonzero" opacity="1" stroke="none"/>
<path d="M1633.82 903.673L1709.39 903.673L1608.63 1080L1533.06 1080" fill="#15439f" fill-rule="nonzero" opacity="1" stroke="none"/>
<path d="M1523.62 903.673L1599.18 903.673L1498.43 1080L1422.86 1080" fill="#15439f" fill-rule="nonzero" opacity="1" stroke="none"/>
<path d="M972.595 903.673L1048.16 903.673L947.405 1080L871.837 1080" fill="#15439f" fill-rule="nonzero" opacity="1" stroke="none"/>
<path d="M531.778 903.673L607.347 903.673L506.589 1080L431.02 1080" fill="#15439f" fill-rule="nonzero" opacity="1" stroke="none"/>
<path d="M1854.23 903.673L1929.8 903.673L1829.04 1080L1753.47 1080" fill="#15439f" fill-rule="nonzero" opacity="1" stroke="none"/>
<path d="M1744.02 903.673L1819.59 903.673L1718.83 1080L1643.27 1080" fill="#15439f" fill-rule="nonzero" opacity="1" stroke="none"/>
<path d="M1082.8 903.673L1158.37 903.673L1057.61 1080L982.041 1080" fill="#15439f" fill-rule="nonzero" opacity="1" stroke="none"/>
<path d="M201.166 903.673L276.735 903.673L175.977 1080L100.408 1080" fill="#15439f" fill-rule="nonzero" opacity="1" stroke="none"/>
<path d="M1303.21 903.673L1378.78 903.673L1278.02 1080L1202.45 1080" fill="#15439f" fill-rule="nonzero" opacity="1" stroke="none"/>
<path d="M752.187 903.673L827.755 903.673L726.997 1080L651.429 1080" fill="#15439f" fill-rule="nonzero" opacity="1" stroke="none"/>
<path d="M752.187 903.673L827.755 903.673L726.997 1080L651.429 1080" fill="#15439f" fill-rule="nonzero" opacity="1" stroke="none"/>
<path d="M1929.8 1080L1852.65 1080L1929.8 947.755" fill="#15439f" fill-rule="nonzero" opacity="1" stroke="none"/>
</g>
<path d="M98.9424 399.743C92.0327 410.003 78.8412 417.122 57.2743 422.357L69.8376 439.736C70.8845 441.411 71.722 442.04 73.1878 442.04C74.0253 442.04 74.8629 441.83 76.1192 441.411C96.2204 435.339 111.296 425.079 120.3 411.26C129.094 423.404 140.401 431.361 157.78 439.318C158.827 439.736 159.665 439.946 160.293 439.946C161.549 439.946 162.387 439.527 163.224 438.271L170.344 428.639L175.997 443.715C176.835 445.809 177.672 446.856 181.86 446.856C203.846 446.856 213.059 441.202 213.059 422.567L212.012 362.682L212.012 283.533L212.64 255.684L211.384 254.219L188.979 254.847L150.242 254.847L128.047 254.219L126.582 255.684L127.21 277.88L127.21 304.472L126.582 327.923L128.257 329.808L132.863 329.598C130.351 336.718 127.629 343.418 124.488 350.118L115.693 350.118C111.506 342.999 106.69 335.88 101.455 329.598L111.087 329.808L112.762 327.923L112.134 304.472L112.134 277.88L112.762 255.684L111.296 254.219L89.1012 254.847L53.5053 254.847L31.1008 254.219L29.8445 255.684L30.4727 283.533L30.4727 377.129L29.4257 448.321L56.2273 448.321L56.2273 329.18L88.8918 329.18L98.7331 329.389L79.8882 336.299L79.8882 338.183C82.1914 341.324 84.9135 345.512 87.6355 349.909L68.5812 349.49L67.1155 350.747L67.1155 368.754L68.5812 370.22L96.011 369.591L105.643 369.591L105.643 374.617C105.643 376.292 105.643 377.967 105.433 379.433L91.4045 379.433L62.9278 379.014L61.462 380.061L61.462 399.324L62.9278 400.371L91.4045 399.743L98.9424 399.743ZM130.769 379.433C130.979 376.92 130.979 374.407 130.979 371.685L130.979 369.591L144.589 369.591L170.972 370.22L172.438 368.754L172.438 350.747L170.972 349.49L150.661 349.909C153.593 345.302 156.315 340.487 158.827 335.88L157.571 334.414L138.726 329.598L150.452 329.18L185.001 329.18L185.001 412.097C185.001 417.122 184.582 417.96 182.069 418.379C179.347 418.588 177.044 418.798 174.95 419.007C161.968 414.819 148.358 409.794 138.726 399.743L150.242 399.743L177.672 400.371L179.138 399.324L179.138 380.061L177.672 379.014L150.242 379.433L130.769 379.433ZM153.174 300.284L185.001 300.284L185.001 309.078L153.174 309.078L153.174 300.284ZM153.174 283.533L153.174 274.948L185.001 274.948L185.001 283.533L153.174 283.533ZM56.2273 283.533L56.2273 274.948L86.5886 274.948L86.5886 283.533L56.2273 283.533ZM56.2273 300.284L86.5886 300.284L86.5886 309.078L56.2273 309.078L56.2273 300.284Z" fill="#15439f" fill-rule="nonzero" opacity="1" stroke="none"/>
<path d="M287.083 356.191L292.318 380.061L294.202 381.108C305.09 380.061 324.144 378.595 344.455 376.711L344.455 398.906L343.199 448.321L374.188 448.321L372.722 398.906L372.722 374.198C384.029 373.36 395.336 372.104 406.643 371.057C409.156 375.454 411.459 379.433 413.344 382.992L415.438 383.411L435.12 372.942L435.539 371.267C428.629 357.866 415.856 339.021 406.015 328.133L403.921 328.133L386.333 337.136L385.704 339.44C388.008 342.162 390.73 345.721 393.452 349.909C384.029 350.537 374.398 351.165 364.766 351.793C379.423 337.555 393.033 322.06 405.178 306.356L404.549 304.053L383.401 290.443L381.098 290.652C373.351 302.169 364.766 313.894 354.715 325.829C351.574 323.317 348.224 320.804 344.874 318.501C352.831 309.497 359.95 300.075 368.744 287.511L368.325 285.627L361.206 281.439C379.842 278.508 397.64 274.948 418.997 269.923L419.416 268.038C411.459 260.291 405.178 255.056 397.849 249.822L395.755 249.612C371.885 256.103 340.686 262.176 293.993 266.573C294.83 263.013 295.877 259.244 296.715 255.475L295.668 253.591L269.494 247.937L267.61 248.984C261.538 285.836 249.393 318.501 233.061 346.768L240.808 375.664C241.227 377.129 242.064 377.967 243.111 377.967C243.949 377.967 244.996 377.339 245.833 375.873C249.393 370.01 251.487 366.032 254.837 358.284L254.837 383.83L253.79 448.531L283.104 448.531L283.104 302.169C286.664 292.327 289.805 282.277 292.527 272.226L301.949 287.093C302.578 288.14 304.043 288.768 306.556 288.558C317.444 287.511 327.285 286.255 336.708 284.999C332.729 291.909 328.123 298.19 323.726 304.681C319.747 302.378 316.188 300.284 312.628 298.609L310.744 298.609L296.715 315.779L296.715 317.454C310.744 325.411 325.401 335.042 337.336 345.302C334.614 348.234 331.892 350.956 329.17 353.887C313.256 354.516 298.809 354.934 288.758 354.934L287.083 356.191ZM316.816 384.249L314.931 384.877C305.718 401.209 295.458 413.982 283.314 424.242L302.578 438.689C303.415 439.318 304.253 439.736 304.881 439.736C305.928 439.736 306.975 439.108 308.44 437.852C320.166 426.754 329.17 413.982 339.011 397.021L337.755 395.137L316.816 384.249ZM378.167 394.09L377.957 395.974C386.333 404.559 398.896 419.635 408.109 434.711L409.993 435.13L429.257 419.844L429.676 417.541C421.51 405.397 407.271 390.321 397.43 381.527L395.127 381.527L378.167 394.09Z" fill="#15439f" fill-rule="nonzero" opacity="1" stroke="none"/>
<path d="M574.363 272.226L572.897 270.76L542.955 271.389L541.489 271.389L541.489 250.24L539.814 248.565L513.012 248.565L511.547 250.45L511.547 271.389L493.12 271.389L465.9 270.76L463.806 271.807L463.806 294.631L465.481 296.096L493.12 295.468L511.547 295.468L511.547 310.963L475.741 310.963L446.427 310.335L444.333 311.382L444.333 334.414L446.008 335.88L475.741 335.252L522.225 335.252C496.889 351.584 468.831 365.194 440.145 376.92L456.687 396.393C457.943 397.859 459.2 398.487 460.456 398.487C461.293 398.487 462.55 398.068 463.806 397.44C473.857 392.833 483.907 387.808 493.958 382.573L493.958 399.743L492.911 448.321L522.435 448.321L522.435 438.899L583.157 438.899L583.157 447.065L613.518 447.065L612.471 400.581L612.471 374.826L613.1 350.537L611.634 349.071L582.738 349.7L545.886 349.7C552.796 345.093 559.496 340.277 566.197 335.252L607.027 335.252L639.064 335.88L640.529 334.414L640.529 311.8L639.064 310.335L607.027 310.963L591.323 310.963C604.096 298.19 615.612 284.371 626.291 269.713L625.872 267.41L601.583 254.638L599.489 255.056C591.951 266.991 583.576 278.298 574.363 288.558L574.363 272.226ZM567.662 295.887C562.637 301.122 557.402 306.147 551.958 310.963L541.489 310.963L541.489 295.468L542.955 295.468L567.662 295.887ZM583.157 416.076L522.435 416.076L522.435 404.978L583.157 404.978L583.157 416.076ZM583.157 382.783L522.435 382.783L522.435 372.313L583.157 372.313L583.157 382.783Z" fill="#15439f" fill-rule="nonzero" opacity="1" stroke="none"/>
<path d="M828.56 258.197L800.92 256.103L799.455 257.569C800.711 335.671 796.104 359.96 783.541 380.27C768.465 404.769 741.245 418.798 706.068 428.011L725.96 447.484C727.425 448.949 729.31 449.578 731.613 448.949C758.415 442.04 779.353 430.314 796.104 411.469C807.202 422.985 817.671 436.177 824.372 446.227L826.466 446.646L847.195 429.267L847.823 427.173C839.238 414.819 826.047 400.79 812.437 388.855C825.419 365.822 830.653 334.833 830.025 259.663L828.56 258.197ZM678.638 393.88C669.844 397.44 660.84 400.79 650.999 404.35L649.952 406.444L663.562 429.267L665.656 429.476C702.299 413.772 728.891 401.209 757.368 385.505C759.462 384.249 760.509 383.411 760.09 380.898L756.949 358.075C740.617 366.451 724.913 373.989 707.952 381.527L705.021 261.757L703.555 260.5L676.753 261.129L675.288 262.594L678.638 393.88ZM722.191 286.464L721.772 288.768C735.591 298.609 749.62 312.429 758.415 325.411L760.509 325.829L779.353 307.403L779.772 305.309C770.14 292.746 755.693 279.973 741.036 270.76L738.942 271.179L722.191 286.464Z" fill="#15439f" fill-rule="nonzero" opacity="1" stroke="none"/>
<path d="M936.813 304.891C935.557 318.71 933.253 331.692 929.903 343.837C923.831 339.23 917.759 335.252 911.896 332.111L909.174 332.111L895.773 350.118L895.982 352.003C904.149 357.028 911.687 363.31 919.224 370.638C907.08 393.252 888.863 409.584 863.318 422.985L880.488 443.296C881.535 444.552 882.163 444.971 883.21 444.971C883.838 444.971 884.676 444.762 885.722 444.133C913.99 428.429 934.929 407.281 948.329 377.758C955.658 361.844 960.474 343.418 963.405 322.689C969.896 333.996 977.644 344.884 986.647 354.725L986.647 370.429L985.391 446.018L1017.85 446.018L1016.59 376.92C1025.38 382.783 1034.81 388.018 1044.86 393.043C1046.11 393.462 1046.95 393.88 1047.58 393.88C1048.84 393.88 1049.46 393.043 1050.3 391.577L1064.54 367.079C1046.11 359.331 1029.99 351.165 1016.38 340.487L1016.38 252.334L1015.12 251.078L987.694 251.078L986.647 252.334L986.647 289.815L987.066 310.544C982.669 304.053 978.691 296.934 975.131 289.396L973.037 288.977L965.918 294.631C965.918 292.746 965.709 291.071 964.452 290.024L952.936 279.345L940.582 279.973L925.297 279.973C927.6 272.645 929.694 264.898 931.578 256.941L930.95 254.847L906.033 247.728L904.149 248.565C894.726 288.977 882.791 314.313 862.062 339.858L878.603 357.028C879.86 358.494 880.907 359.122 881.744 359.122C883 359.122 884.047 358.284 885.722 356.191C897.867 340.905 907.918 324.154 916.084 304.891L936.813 304.891Z" fill="#15439f" fill-rule="nonzero" opacity="1" stroke="none"/>
<path d="M1255.92 334.205L1256.55 311.172L1254.87 309.497L1225.35 310.125L1209.65 310.125L1209.65 296.724L1235.19 296.724L1267.02 297.353L1268.27 296.306L1268.27 273.064L1267.02 272.017L1235.19 272.645L1209.65 272.645L1209.65 250.031L1208.18 248.565L1182.22 248.565L1180.75 250.031L1180.75 272.645L1162.74 272.645L1130.29 272.017L1129.03 273.273L1129.03 296.096L1130.5 297.353L1162.74 296.724L1180.75 296.724L1180.75 310.125L1167.35 310.125L1136.36 309.497L1134.89 310.753L1135.52 333.158L1135.52 348.443L1134.89 373.36L1136.36 374.826L1166.3 374.198L1179.07 374.198C1178.45 379.223 1177.19 384.249 1175.52 388.855C1170.07 384.877 1165.26 380.27 1160.65 375.245L1158.35 375.245L1139.71 387.599L1139.71 389.902C1146.41 397.859 1153.32 404.769 1160.65 410.841C1149.34 419.844 1134.27 423.195 1120.45 426.126L1120.45 298.609C1124.42 285.627 1127.98 271.179 1131.33 255.266L1130.29 253.381L1104.95 247.728L1103.07 248.775C1097.2 286.046 1083.59 325.201 1071.66 347.606L1078.99 376.292C1079.41 377.758 1080.03 378.595 1081.08 378.595C1081.92 378.595 1082.97 377.967 1084.01 376.501C1087.78 371.267 1089.67 367.916 1092.18 362.263L1092.18 383.83L1091.13 448.531L1120.45 448.531L1120.45 431.151L1133.22 447.693C1134.06 448.949 1134.89 449.578 1136.36 449.578C1136.99 449.578 1137.83 449.368 1138.87 449.159C1158.14 444.552 1173.42 437.642 1184.52 426.545C1204.83 437.014 1226.82 442.458 1250.69 445.599C1254.87 446.227 1256.13 445.599 1258.01 442.458L1272.88 418.169C1242.31 416.076 1218.86 411.26 1199.8 403.093C1203.99 394.09 1206.3 384.249 1207.34 374.198L1227.44 374.198L1254.66 374.826L1256.55 373.36L1255.92 347.396L1255.92 334.205ZM1227.65 331.483L1227.65 352.422L1208.81 352.422C1209.02 345.512 1209.23 338.393 1209.23 331.483L1227.65 331.483ZM1162.53 352.422L1162.53 331.483L1181.17 331.483C1181.17 338.393 1181.17 345.512 1180.96 352.422L1162.53 352.422Z" fill="#15439f" fill-rule="nonzero" opacity="1" stroke="none"/>
<path d="M1394.33 383.411L1431.18 383.411L1431.18 412.097C1431.18 417.122 1430.55 418.588 1427.41 418.798C1421.96 419.216 1413.8 419.426 1407.73 419.426L1417.36 443.924C1418.2 446.018 1418.61 446.437 1422.8 446.437L1430.76 446.437C1455.89 446.437 1462.17 438.271 1462.17 420.054L1461.33 361.425L1461.33 287.93L1461.96 260.71L1460.49 259.244L1425.11 259.872L1337.16 259.872L1301.78 259.244L1300.31 260.71L1300.94 287.93L1300.94 343.837C1300.94 382.364 1297.59 408.119 1280.21 431.989L1302.82 448.531C1303.45 448.949 1304.08 449.159 1304.92 449.159C1305.96 449.159 1307.22 448.531 1307.85 447.693C1320.83 429.058 1326.9 410.422 1329.21 383.411L1365.01 383.411L1364.17 442.668L1395.16 442.668L1394.33 383.411ZM1394.12 358.703L1394.12 333.158L1431.18 333.158L1431.18 358.703L1394.12 358.703ZM1365.22 358.703L1330.46 358.703C1330.67 354.097 1330.67 349.281 1330.67 344.256L1330.67 333.158L1365.22 333.158L1365.22 358.703ZM1394.12 308.45L1394.12 284.999L1431.18 284.999L1431.18 308.45L1394.12 308.45ZM1365.22 308.45L1330.67 308.45L1330.67 284.999L1365.22 284.999L1365.22 308.45Z" fill="#15439f" fill-rule="nonzero" opacity="1" stroke="none"/>
<path d="M1520.38 290.443C1511.16 303.216 1499.65 313.894 1486.46 323.526L1501.32 338.811C1502.37 339.858 1503.21 340.487 1504.25 340.487C1505.09 340.487 1506.35 339.858 1507.81 338.602C1515.56 331.902 1522.05 325.411 1528.33 317.035L1527.29 342.79L1555.97 342.79L1555.14 311.591C1558.28 315.151 1561.21 318.71 1564.56 323.526L1567.07 323.526L1583.4 312.219L1583.61 310.125C1578.17 302.797 1573.14 297.562 1567.07 292.956L1564.77 292.956L1554.93 299.447L1554.93 290.443L1557.44 290.443L1581.52 291.28L1583.19 289.605L1583.19 269.295L1581.31 267.41L1557.44 268.038L1554.93 268.038L1554.93 250.24L1552.83 248.356L1530.43 248.356L1528.54 250.031L1528.54 268.038L1519.12 268.038L1495.46 267.41L1493.78 269.085L1493.78 289.605L1495.46 291.28L1519.12 290.443L1520.38 290.443ZM1646.64 268.038L1646.64 250.24L1644.54 248.356L1621.93 248.356L1620.05 250.031L1620.05 268.038L1613.55 268.038L1589.89 267.41L1588.22 269.085L1588.22 289.605L1589.89 291.28L1611.67 290.443C1600.36 303.844 1587.38 314.941 1570.63 325.62L1585.5 341.115C1586.54 342.162 1587.38 342.79 1588.22 342.79C1589.27 342.79 1590.31 342.162 1591.99 340.905C1602.88 332.53 1611.67 324.154 1619.84 313.894L1618.79 342.79L1647.68 342.79L1646.43 310.544C1654.18 321.642 1664.23 332.53 1673.23 340.487C1674.07 341.324 1674.7 341.533 1675.32 341.533C1675.95 341.533 1676.58 340.905 1677.21 340.068L1692.07 319.967C1678.05 310.753 1665.69 300.493 1656.27 290.443L1660.04 290.443L1684.12 291.28L1685.79 289.605L1685.79 269.295L1683.91 267.41L1660.04 268.038L1646.64 268.038ZM1606.02 398.068L1658.15 398.068L1683.49 398.696L1684.96 397.231L1684.96 376.082L1683.7 375.036L1658.15 375.664L1524.36 375.664L1496.72 375.036L1495.46 376.082L1495.46 397.44L1496.93 398.696L1524.36 398.068L1575.24 398.068L1575.24 414.819C1575.24 419.844 1573.98 421.101 1569.58 421.52C1566.65 421.938 1561 421.938 1553.88 421.938C1556.18 420.263 1558.49 418.588 1561 416.913L1561.21 414.61L1539.85 400.581L1537.97 400.581C1522.05 412.097 1508.02 418.379 1487.5 424.66L1502.79 443.715C1504.04 445.18 1504.67 445.809 1505.93 445.809C1506.56 445.809 1507.6 445.599 1508.65 445.18C1522.68 439.946 1535.24 434.083 1549.69 424.87L1559.95 446.437C1561 448.531 1561.21 448.949 1565.4 448.949C1599.73 448.949 1607.27 442.877 1607.27 423.404L1606.02 398.068ZM1553.46 369.382L1626.33 369.382L1653.97 370.01L1655.01 368.754L1655.01 348.862L1653.34 347.606L1626.33 348.234L1553.46 348.234L1525.82 347.606L1524.56 349.071L1524.56 368.963L1526.03 370.01L1553.46 369.382ZM1688.1 425.917L1687.89 423.613C1667.79 413.144 1652.08 406.234 1634.07 400.581L1631.56 400.79L1614.39 417.751L1614.6 419.426C1635.96 427.173 1654.18 435.967 1670.09 446.018L1672.6 445.809L1688.1 425.917Z" fill="#15439f" fill-rule="nonzero" opacity="1" stroke="none"/>
<path d="M1822.1 320.595L1822.1 252.753L1820.64 251.287L1791.95 251.287L1790.49 252.962L1790.49 412.516L1763.69 412.516L1763.69 303.425L1762.22 301.959L1733.95 301.959L1732.49 303.634L1732.49 412.307L1704.64 411.888L1703.38 412.935L1703.38 439.527L1704.85 440.783L1738.56 440.155L1858.96 440.155L1892.67 440.783L1894.13 439.318L1894.13 412.935L1892.88 411.888L1858.96 412.516L1822.1 412.516L1822.1 347.815L1849.32 347.815L1878.01 348.443L1879.27 347.396L1879.27 321.013L1878.01 319.967L1849.32 320.595L1822.1 320.595Z" fill="#15439f" fill-rule="nonzero" opacity="1" stroke="none"/>
<path d="M24.0367 742.224C30.9796 796.114 65.3633 823.555 126.196 823.555C184.384 823.555 219.098 792.808 219.098 744.869C219.098 702.551 195.955 682.053 141.073 664.531C104.045 652.629 91.8122 643.371 91.8122 625.849C91.8122 609.98 101.069 599.4 117.931 599.4C139.751 599.4 151.984 615.6 154.298 646.678L213.147 634.445C205.873 585.184 173.473 558.735 120.576 558.735C68.3388 558.735 33.9551 587.829 33.9551 636.429C33.9551 675.771 58.0898 698.584 105.037 715.114C145.702 729.331 156.943 736.604 156.943 755.118C156.943 771.649 145.371 779.584 129.833 779.584C102.392 779.584 89.1673 763.714 84.8694 734.62L24.0367 742.224Z" fill="#15439f" fill-rule="nonzero" opacity="1" stroke="none"/>
<path d="M433.996 562.041L235.629 562.041L235.629 609.98L305.057 609.98L305.057 819.918L364.567 819.918L364.567 609.98L433.996 609.98L433.996 562.041Z" fill="#15439f" fill-rule="nonzero" opacity="1" stroke="none"/>
<path d="M603.931 562.041L509.706 562.041L443.914 819.918L500.449 819.918L514.996 759.416L594.012 759.416L608.89 819.918L670.053 819.918L603.931 562.041ZM582.771 713.131L526.237 713.131L546.404 631.469C549.38 619.898 552.024 607.996 554.008 596.094L555.661 596.094C557.314 607.996 559.959 619.898 562.935 631.469L582.771 713.131Z" fill="#15439f" fill-rule="nonzero" opacity="1" stroke="none"/>
<path d="M891.894 819.918L836.351 706.849C861.808 695.939 877.678 674.449 877.678 637.751C877.678 586.176 839.988 562.041 786.759 562.041L699.808 562.041L699.808 819.918L759.318 819.918L759.318 725.694L784.114 725.694L822.796 819.918L891.894 819.918ZM759.318 605.02L780.478 605.02C803.951 605.02 818.167 617.584 818.167 644.033C818.167 671.473 803.951 681.722 780.478 681.722L759.318 681.722L759.318 605.02Z" fill="#15439f" fill-rule="nonzero" opacity="1" stroke="none"/>
<path d="M1095.22 558.735C1030.75 558.735 985.457 598.408 985.457 690.98C985.457 783.551 1030.75 823.224 1095.22 823.224C1159.69 823.224 1204.98 783.551 1204.98 690.98C1204.98 598.408 1159.69 558.735 1095.22 558.735ZM1095.22 780.245C1066.13 780.245 1049.93 756.441 1049.93 690.98C1049.93 625.518 1066.13 601.714 1095.22 601.714C1124.31 601.714 1140.51 625.518 1140.51 690.98C1140.51 756.441 1124.31 780.245 1095.22 780.245Z" fill="#15439f" fill-rule="nonzero" opacity="1" stroke="none"/>
<path d="M1397.07 562.041L1397.07 637.751C1397.07 680.731 1399.38 726.024 1403.68 768.673L1400.71 768.673C1396.74 750.82 1391.78 732.967 1385.5 715.776L1330.62 562.041L1244.66 562.041L1244.66 819.918L1298.22 819.918L1298.22 751.151C1298.22 715.114 1296.23 655.604 1291.93 613.286L1294.91 613.286C1298.88 631.139 1303.51 648.992 1309.79 666.184L1364.67 819.918L1450.63 819.918L1450.63 562.041L1397.07 562.041Z" fill="#15439f" fill-rule="nonzero" opacity="1" stroke="none"/>
<path d="M1564.69 773.633L1564.69 562.041L1503.53 562.041L1503.53 819.918L1663.21 819.918L1663.21 773.633L1564.69 773.633Z" fill="#15439f" fill-rule="nonzero" opacity="1" stroke="none"/>
<path d="M1902.58 562.041L1839.76 562.041L1802.73 649.653C1798.43 659.571 1794.8 668.167 1791.49 678.086C1787.85 668.498 1784.22 658.91 1779.92 649.653L1739.25 562.041L1673.13 562.041L1757.11 736.273L1757.11 819.918L1818.6 819.918L1818.6 736.273L1902.58 562.041Z" fill="#15439f" fill-rule="nonzero" opacity="1" stroke="none"/>
</g>
</g>
</svg>
